<svg width="96" height="95" viewBox="0 0 96 95" fill="none" xmlns="http://www.w3.org/2000/svg">
<path fill-rule="evenodd" clip-rule="evenodd" d="M58.3695 1.13339H37.4018C34.898 1.13339 32.8683 3.16313 32.8683 5.66695V88.971C32.8683 91.4748 34.898 93.5046 37.4018 93.5046H58.3695C60.8733 93.5046 62.9031 91.4748 62.9031 88.971V5.66694C62.9031 3.16313 60.8733 1.13339 58.3695 1.13339ZM37.4018 0C34.2721 0 31.7349 2.53718 31.7349 5.66695V31.1682H5.66695C2.53718 31.1682 1.05333e-06 33.7054 9.16529e-07 36.8351L0 57.8028C-1.36806e-07 60.9326 2.53718 63.4698 5.66695 63.4698H31.7349L31.7349 88.971C31.7349 92.1008 34.2721 94.638 37.4018 94.638H58.3695C61.4993 94.638 64.0365 92.1008 64.0365 88.971V5.66694C64.0365 2.53718 61.4993 0 58.3695 0H37.4018ZM64.0365 31.1681L64.0365 63.4697L90.1045 63.4697C93.2342 63.4697 95.7714 60.9325 95.7714 57.8028V36.8351C95.7714 33.7053 93.2342 31.1681 90.1045 31.1681L64.0365 31.1681Z" fill="url(#paint0_linear_9_605)"/>
<path d="M11.2221 47.6204C10.9572 47.4675 10.9572 47.0852 11.2221 46.9323L18.9688 42.4597C19.2337 42.3068 19.5647 42.4979 19.5647 42.8038L19.5647 51.7489C19.5647 52.0547 19.2337 52.2459 18.9688 52.093L11.2221 47.6204Z" fill="url(#paint1_linear_9_605)"/>
<path d="M47.4671 10.2327C47.62 9.96408 48.0023 9.96408 48.1552 10.2327L52.6278 18.0901C52.7807 18.3588 52.5895 18.6945 52.2837 18.6945L43.3385 18.6945C43.0327 18.6945 42.8416 18.3587 42.9945 18.0901L47.4671 10.2327Z" fill="url(#paint2_linear_9_605)"/>
<path d="M10.6552 47.6204C10.3903 47.4674 10.3903 47.0852 10.6552 46.9323L18.4019 42.4597C18.6668 42.3068 18.9978 42.4979 18.9978 42.8037L18.9978 51.7489C18.9978 52.0547 18.6668 52.2459 18.4019 52.0929L10.6552 47.6204Z" fill="#09050D"/>
<path d="M85.1161 47.0176C85.3809 47.1705 85.3809 47.5527 85.1161 47.7057L77.3693 52.1782C77.1045 52.3312 76.7734 52.14 76.7734 51.8342L76.7734 42.889C76.7734 42.5832 77.1045 42.3921 77.3693 42.545L85.1161 47.0176Z" fill="#09050D"/>
<path d="M48.3042 83.8656C48.1513 84.1305 47.769 84.1305 47.6161 83.8656L43.1435 76.1189C42.9906 75.854 43.1817 75.523 43.4875 75.523L52.4327 75.523C52.7385 75.523 52.9297 75.854 52.7767 76.1189L48.3042 83.8656Z" fill="url(#paint3_linear_9_605)"/>
<defs>
<linearGradient id="paint0_linear_9_605" x1="160.015" y1="177.61" x2="51.5423" y2="191.862" gradientUnits="userSpaceOnUse">
<stop stop-color="#7C38B2"/>
<stop offset="1" stop-color="#69D9FE"/>
</linearGradient>
<linearGradient id="paint1_linear_9_605" x1="27.0532" y1="35.8717" x2="28.6793" y2="46.8541" gradientUnits="userSpaceOnUse">
<stop stop-color="#7C38B2"/>
<stop offset="1" stop-color="#69D9FE"/>
</linearGradient>
<linearGradient id="paint2_linear_9_605" x1="59.2158" y1="26.29" x2="48.2268" y2="27.8941" gradientUnits="userSpaceOnUse">
<stop stop-color="#7C38B2"/>
<stop offset="1" stop-color="#69D9FE"/>
</linearGradient>
<linearGradient id="paint3_linear_9_605" x1="36.5555" y1="68.0345" x2="47.5379" y2="66.4084" gradientUnits="userSpaceOnUse">
<stop stop-color="#7C38B2"/>
<stop offset="1" stop-color="#69D9FE"/>
</linearGradient>
</defs>
</svg>
